<mxfile host="app.diagrams.net" modified="2024-02-01T09:44:24.462Z" agent="Mozilla/5.0 (Windows NT 10.0; Win64; x64; rv:122.0) Gecko/20100101 Firefox/122.0" version="23.1.0" etag="hCcRqr6UnTyZhE4GLvbD" type="github">
  <diagram name="페이지-1" id="MBRcb1wGb5XXcI6AFy3u">
    <mxGraphModel>
      <root>
        <mxCell id="0" />
        <mxCell id="1" parent="0" />
      </root>
    </mxGraphModel>
  </diagram>
</mxfile>
